<?xml version="1.0" encoding="UTF-8" standalone="no"?>
<!-- Created with Inkscape (http://www.inkscape.org/) -->

<svg
   xmlns:dc="http://purl.org/dc/elements/1.1/"
   xmlns:cc="http://creativecommons.org/ns#"
   xmlns:rdf="http://www.w3.org/1999/02/22-rdf-syntax-ns#"
   xmlns:svg="http://www.w3.org/2000/svg"
   xmlns="http://www.w3.org/2000/svg"
   xmlns:sodipodi="http://sodipodi.sourceforge.net/DTD/sodipodi-0.dtd"
   xmlns:inkscape="http://www.inkscape.org/namespaces/inkscape"
   id="svg3117"
   version="1.1"
   inkscape:version="0.48.3.1 r9886"
   width="400.88281"
   height="329.89539"
   xml:space="preserve"
   sodipodi:docname="Cda_logo.pdf"><metadata
     id="metadata3123"><rdf:RDF><cc:Work
         rdf:about=""><dc:format>image/svg+xml</dc:format><dc:type
           rdf:resource="http://purl.org/dc/dcmitype/StillImage" /><dc:title></dc:title></cc:Work></rdf:RDF></metadata><defs
     id="defs3121"><clipPath
       clipPathUnits="userSpaceOnUse"
       id="clipPath3131"><path
         d="m 0,841.89 595.275,0 L 595.275,0 0,0 0,841.89 z"
         id="path3133"
         inkscape:connector-curvature="0" /></clipPath></defs><sodipodi:namedview
     pagecolor="#ffffff"
     bordercolor="#666666"
     borderopacity="1"
     objecttolerance="10"
     gridtolerance="10"
     guidetolerance="10"
     inkscape:pageopacity="0"
     inkscape:pageshadow="2"
     inkscape:window-width="1680"
     inkscape:window-height="1001"
     id="namedview3119"
     showgrid="false"
     fit-margin-top="5"
     fit-margin-left="5"
     fit-margin-right="5"
     fit-margin-bottom="5"
     inkscape:zoom="1.2685909"
     inkscape:cx="419.97801"
     inkscape:cy="133.9859"
     inkscape:window-x="1920"
     inkscape:window-y="0"
     inkscape:window-maximized="1"
     inkscape:current-layer="g3125" /><g
     id="g3125"
     inkscape:groupmode="layer"
     inkscape:label="Cda_logo"
     transform="matrix(1.25,0,0,-1.25,-171.934,631.47213)"><path
       inkscape:connector-curvature="0"
       id="path3137"
       style="fill:#000000;fill-opacity:1;fill-rule:evenodd;stroke:none"
       d="m 292.8643,328.7227 0,0 0.021,0 -48.328,0 c -18.563,14.396 -30.586,36.869 -30.586,62.123 0,43.442 35.337,78.672 78.914,78.672 31.536,0 59.007,-18.894 71.646,-45.56 0.529,0.213 1.109,0.405 1.742,0.583 0.861,0.251 1.752,0.039 2.553,-0.3 0.674,2.811 4.582,4.783 7.268,3.733 0.704,2.303 4.389,4.074 6.658,3.224 0.543,1.355 1.965,2.285 3.264,2.785 l -10e-4,0.002 c 1.171,0.385 2.2,0.476 3.331,-0.084 0.036,0.163 0.063,0.4 0.101,0.657 -16.649,36.591 -53.784,63.002 -96.562,62.425 -58.38,-0.012 -105.721,-47.389 -105.721,-105.808 0,-58.419 47.341,-105.796 105.721,-105.807 44.965,0 83.458,28.364 98.746,67.968 -5.729,6.316 -13.943,10.203 -22.382,12.657 -1.849,-9.149 -5.065,-16.379 -12.414,-20.827 -4.412,-6.077 -9.733,-11.859 -15.642,-16.443 l -48.329,0 z m 23.158,105.257 c -1.53,0 -2.7,0.9 -2.7,5.13 0,3.03 0.689,5.01 2.73,5.01 1.53,0 2.7,-0.9 2.7,-5.13 0,-3.03 -0.69,-5.01 -2.73,-5.01 m -7.11,5.04 c 0,-2.951 1.018,-5.276 2.81,-6.64 -1.578,-0.551 -3.133,-1.433 -4.908,-2.853 -4.617,-2.678 -10.259,-1.288 -13.866,-6.625 -0.867,-1.301 -1.791,-2.639 -2.969,-3.681 l -66.658,0.002 c 24.841,60.898 110.69,61.207 137.999,2.54 -0.804,-0.994 -1.253,-2.241 -1.414,-3.845 -2.033,5.018 -7.801,11.261 -12.287,12.999 -2.834,1.097 -4.456,0.363 -7.425,0.825 -3.584,0.556 -7.187,1.032 -10.624,2.35 -3.209,0.902 -5.34,-0.25 -8.221,-0.645 1.151,1.395 1.813,3.331 1.813,5.633 0,4.83 -2.73,7.98 -7.11,7.98 -4.23,0 -7.14,-3.21 -7.14,-8.04 m 4.868,-7.675 c 0.789,0.333 3.095,0.204 3.799,-0.155 6.43,-1.726 12.48,-10.253 12.621,-15.967 -7.777,-1.698 -10.206,6.467 -15.66,9.885 -1.934,1.212 -3.41,1.797 -5.591,3.297 l 1.064,0.962 c 1.196,1.078 2.467,1.708 3.767,1.978 m -13.809,2.635 c -1.529,0 -2.699,0.9 -2.699,5.13 0,3.03 0.69,5.01 2.73,5.01 1.53,0 2.7,-0.9 2.7,-5.13 0,-3.03 -0.691,-5.01 -2.731,-5.01 m -7.109,5.04 c 0,-4.83 2.73,-7.985 7.109,-7.985 4.231,0 7.141,3.215 7.141,8.045 0,4.83 -2.73,7.98 -7.11,7.98 -4.23,0 -7.14,-3.21 -7.14,-8.04 m -12.93,3.84 1.02,-2.16 c 1.32,0.45 2.49,1.05 3.6,1.74 l 0,-7.77 -3.24,0 0,-3.27 9.51,0 0,3.27 -2.4,0 0,12.39 -2.7,0 -5.79,-4.2 z m -9.06,-1.95 c 1.68,0 2.73,-1.23 2.73,-3.15 0,-2.25 -1.17,-3.69 -2.97,-3.69 -1.86,0 -2.97,1.5 -2.97,4.05 0,0.48 0.03,0.99 0.06,1.56 0.03,0.06 0.03,0.12 0.03,0.24 1.2,0.69 2.16,0.99 3.12,0.99 m 1.53,10.98 c -2.01,-0.93 -3.63,-2.01 -4.98,-3.27 -1.5,-1.41 -2.7,-3.15 -3.36,-4.86 -0.51,-1.29 -0.78,-2.85 -0.78,-4.32 0,-4.95 3.15,-8.465 7.53,-8.465 3.96,0 7.02,2.975 7.02,6.845 0,3.57 -2.79,6.33 -6.42,6.33 -1.29,0 -2.4,-0.33 -3.21,-0.99 0.33,1.05 0.9,2.1 1.62,3 0.42,0.57 0.93,1.08 1.5,1.53 1.17,0.96 2.37,1.59 4.53,2.34 l 0.15,0.06 -0.87,2.88 c -1.14,-0.36 -1.59,-0.51 -2.73,-1.08 m 20.462,-34.812 0,0 c 5.228,0.365 11.653,-0.924 17.292,-5.648 -2.014,-4.93 -13.395,-3.277 -17.271,-2.418 -3.439,0.758 -7.176,0.938 -10.389,2.497 0.802,4.669 6.484,5.407 10.368,5.569 m 0.021,-10.236 0,0 c 2.524,-0.283 5.055,-0.562 7.461,-1.402 -1.281,-8.414 -15.106,-6.953 -20.517,-5.838 -3.613,0.745 -5.478,0.334 -9.163,1.972 5.044,7.462 14.449,6.137 22.219,5.268 m 0,-16.25 0,0 -1.362,0.346 c -5.877,-5.682 -11.848,-10.043 -19.752,-12.682 -2.97,-1.076 -3.967,-2.141 -6.621,-3.734 -1.556,-0.932 -6.162,-1.094 -7.918,-1.475 -4.302,-0.933 -6.555,-1.371 -10.761,-2.288 -4.478,-0.973 -11.867,1.212 -13.352,-3.085 0.287,-1.065 0.634,-2.121 1.036,-3.164 1.997,-0.252 3.83,0.43 6.214,0.192 2.495,-0.247 4.098,1.589 6.823,1.555 1.994,3.587 13.515,1.011 16.328,1.09 6.161,0.172 9.289,-3.646 14.552,-5.286 4.533,-1.416 8.928,-2.012 13.412,-3.113 5.682,6.17 11.417,12.271 18.425,16.983 10.609,7.132 22.252,10.806 34.168,11.642 0.086,1.396 -0.216,2.017 -0.55,2.978 -1.228,-0.412 -2.457,-0.826 -3.681,-1.25 -16.287,-5.648 -31.454,-2.615 -46.961,1.291 m -0.689,-33.535 0,0 c 8.438,1.258 17.465,-16.238 21.643,-21.873 -4.713,-1.025 -4.206,0.119 -8.779,1.982 -6.421,2.621 -11.092,13.544 -14.673,19.52 0.6,0.125 1.204,0.28 1.809,0.371 m 0.689,-9.121 0,0 c 1.478,-2.508 3.261,-5.296 3.912,-8.166 -4.462,-0.752 -10.218,-0.556 -12.572,4.18 -2.606,5.239 -4.326,12.765 -5.818,15.804 2.872,-0.627 5.873,-0.855 7.874,-2.304 2.924,-2.116 4.469,-5.892 6.604,-9.514 m 0,-14.44 0,0 c 1.105,0.995 2.167,2.02 3.232,3.071 2.533,-0.416 5.202,-0.029 7.47,-1.172 2.138,-1.078 4.347,-2.094 6.641,-2.664 l -18.238,0 0.895,0.765 z m 38.192,-0.765 0,0 c 4.307,0.998 9.141,1.91 13.06,4.025 -1.382,-1.384 -2.792,-2.857 -4.305,-4.025 l -8.755,0 z m 66.027,40.711 0,0 c -7.539,5.349 -16.383,8.883 -25.278,11.265 0.392,2.342 0.325,8.324 -0.808,12.229 1.696,-0.072 3.568,0.607 5.171,1.369 l 0,10e-4 c 1.031,0.464 1.9,1.519 2.136,2.63 1.686,-1.969 5.029,-1.49 7.049,-0.144 l 0,0.001 c 0.672,0.451 1.08,1.243 1.286,2.004 2.066,-1.66 4.094,-0.803 6.451,0.035 0.899,0.274 1.517,0.933 1.869,1.78 0.48,-0.235 0.964,-0.462 1.434,-0.711 l 0.007,0.011 c 0.454,-0.189 0.944,-0.267 1.444,-0.253 1.17,-10.11 0.873,-20.165 -0.761,-30.217 m -93.292,-18.342 0,0 c 6.869,1.482 15.586,-10.348 20.089,-14.576 1.552,-1.457 3.228,-1.944 6.446,-5.103 -11.868,-4.362 -18.19,5.036 -24.403,13.923 -1.163,1.665 -2.815,3.561 -3.243,5.518 l 1.111,0.238 z m 14.879,59.742 0,0 1.361,0.557 c -2.028,2.693 -3.816,4.304 -6.27,6.607 -5.148,4.841 -15.499,5.656 -19.459,-1.029 2.519,-1.293 3.259,-1.031 5.793,-1.75 6.273,-1.779 11.587,-7.244 18.575,-4.385 m 6.551,17.7 0,0 c -3.14,-0.695 2.367,-5.417 2.852,-6.225 2.097,-3.488 5.851,-15.729 11.322,-14.541 2.801,0.607 -1.067,11.718 -1.453,13.425 -0.966,4.256 -8.609,8.251 -12.721,7.341 m 13.482,-2.731 c 0.626,-2.184 1.931,-4.619 2.281,-6.292 0.895,-4.282 0.955,-12.747 7.572,-11.302 6.38,1.393 0.85,12.714 -2.066,15.151 -2.136,1.731 -5.115,3.543 -7.787,2.443 m 16.495,-6.415 0,0 c -1.226,2.411 -3.034,1.575 -3.15,-1.019 -0.1,-2.188 0.171,-4.391 0.375,-6.564 0.223,-2.611 4.023,-2.104 4.746,0.11 0.445,1.359 -1.323,6.453 -1.971,7.473 m 11.773,-58.807 0,0 c 0.353,-3.526 -2.465,-7.738 -5.5,-9.377 -6.452,-3.482 -15.119,-0.241 -21.321,2.435 5.706,3.342 13.314,4.435 19.7,5.928 2.653,0.621 4.19,2.544 7.043,1.799 l 0.078,-0.785 z m -7.615,-15.278 0,0 c -1.807,-4.127 -8.826,-4.854 -12.701,-5.695 -2.815,-0.612 -14.917,6.369 -15.556,9.181 l -0.253,1.115 c 7.107,1.546 14.966,-1.595 22.043,-2.365 2.85,-0.312 4.276,-0.088 6.933,-1.171 l -0.466,-1.065 z m -16.131,-9.692 0,0 c -1.883,-2.259 -5.082,-2.259 -7.709,-2.832 -6.079,-1.32 -12.914,7.856 -16.195,12.17 -1.04,1.368 -1.18,1.536 -1.543,3.153 9.633,2.098 18.951,-6.604 26.251,-11.528 l -0.804,-0.963 z m 4.995,49.136 0,0 c -7.142,-0.343 14.623,7.46 18.542,8.526 1.857,-0.146 4.444,-3.523 0.125,-5.849 -3.61,-0.424 -14.119,-2.443 -18.667,-2.677 m 35.684,34.188 0,0 -0.22,-1.81 -1.07,1.199 1.29,0.611 z m 11.908,-9.728 0,0 0.263,0.085 1.178,-1.03 -1.643,-0.534 c 0.059,0.495 0.131,0.987 0.202,1.479 m -11.905,17.272 0,0 c 0.108,0.461 0.674,1.245 1.226,1.163 5.063,-2.929 14.564,-8.623 13.468,-15.561 l -0.002,0 c -0.182,-0.928 -0.32,-1.863 -0.487,-2.794 -0.487,0.426 -1.395,1.613 -2.123,1.382 0.677,6.879 -7.292,12.545 -12.082,15.81 m -6.609,-3.107 0,0 c 0.452,1.915 2.034,1.148 3.118,0.121 -0.648,-0.295 -1.287,-0.614 -1.943,-0.892 -0.33,0.248 -0.734,0.52 -1.175,0.771 m 1.417,-19.776 0,0 c 0.324,0.111 0.649,0.223 0.978,0.322 l 1.178,-0.962 -2.204,-0.581 c 0.03,0.397 0.045,0.806 0.048,1.221 m -8.669,16.005 0,0 c 0.442,2.884 2.24,1.312 2.921,0.956 6.881,-4.473 9.492,-8.546 8.734,-16.55 -1.369,1.138 -1.511,1.497 -3.014,0.993 -0.29,6.014 -3.202,11.492 -8.533,14.543 l -10e-4,-0.002 -0.107,0.06 z m 25.291,-17.688 0,0 c 0.077,0.407 0.119,0.82 0.15,1.233 0.584,0.194 1.158,0.413 1.737,0.618 -0.212,-1.752 -0.221,-2.682 -1.887,-1.851 m -8.413,-1.669 0,0 c 0.975,5.721 1.688,10.233 -1.208,14.422 -1.075,1.58 -0.723,2.121 -0.483,4.094 2.699,-2.314 4.877,-5.131 5.223,-8.83 0.127,-1.359 0.168,-9.631 -2.053,-10.682 -0.575,0.224 -0.948,0.803 -1.479,0.996 m -7.789,-2.221 0,0 1.603,0.483 c -0.107,-0.461 -0.28,-1.077 -0.656,-1.404 -0.375,0.221 -0.677,0.586 -0.947,0.921 m -10.613,-2.259 0,0 c 0.594,-0.986 1.476,-1.652 2.607,-1.473 2.414,3.658 2.017,9.924 0.887,14.147 -1.055,3.908 -10.708,14.138 -10.86,4.136 7.932,2.721 13.877,-14.382 7.366,-16.81 m 27.216,30.691 0,0 1.622,-1.258 c -0.507,-0.199 -2.213,-0.772 -1.214,-1.562 l -0.001,-10e-4 c 6.246,-4.988 7.387,-6.688 6.14,-14.954 -0.646,-4.295 -0.304,-6.422 -4.344,-7.572 0.441,0.886 0.549,1.925 0.661,2.896 0.327,2.846 -2.582,0.284 -3.944,0.284 -1.079,-0.322 -0.112,-3.54 -2.013,-4.202 l 0,10e-4 c -0.768,-0.272 -1.551,-0.5 -2.344,-0.688 3.73,7.523 1.328,16.156 -5.151,21.148 -0.319,0.272 -5.338,-1.095 -4.142,-2.411 0,-0.321 2.252,-2.543 2.624,-2.987 3.773,-4.981 2.813,-9.727 1.825,-15.541 -0.454,-2.095 -1.828,-2.27 -3.806,-2.553 1.343,4.545 -1.134,2.326 -3.942,1.494 -1.177,-0.348 -0.567,-2.219 -2.112,-3.041 -0.883,-0.42 -1.829,-0.693 -2.781,-0.904 3.392,7.544 0.587,21.736 -8.77,23.611 2.193,1.018 3.293,1.381 5.432,0.173 l -0.001,0 0.012,-0.007 -10e-4,-10e-4 c 6.903,-3.955 7.582,-9.681 7.761,-16.803 -0.077,-0.469 0.372,-0.888 0.849,-0.749 3.746,1.103 4.636,0.039 5.014,3.858 0.754,7.64 -2.699,13.083 -9.438,17.008 -0.388,0.242 -0.803,0.448 -1.238,0.587 0.534,0.273 1.127,0.54 1.716,0.67 1.184,0.126 3.771,-1.958 4.462,-1.736 l 0,0 c 0.576,0 4.335,1.532 3.441,2.496 -0.647,0.739 -1.389,1.445 -2.288,1.867 0.926,0.454 1.931,0.763 2.869,0.146 4.816,-3.238 11.801,-7.965 12.057,-14.567 -0.063,-0.69 -1.278,-5.769 0.414,-5.016 4.733,1.71 3.787,0.461 4.807,5.683 l -10e-4,0 c 0.529,2.604 -0.248,4.505 -1.585,6.683 -2.447,4.041 -8.142,7.741 -12.183,10.095 l 0.269,0.103 0,-0.002 c 1.001,0.33 1.706,0.374 2.641,-0.185 l -10e-4,0 c 0.759,-0.463 4.165,-3.096 4.834,-2.82 l 0,0 1.85,0.757 z m -4.957,3.84 0,0 3.733,-2.892 -0.792,-0.325 c -1.03,0.742 -2.1,1.429 -3.18,2.097 l 0.239,1.12 z m 14.966,-11.595 0,0 -1.876,-15.006 -1.075,0.707 c 0.901,3.687 2.686,10.863 0.277,14.23 -1.201,1.835 -2.369,3.001 -3.879,4.266 l 0.069,0.827 6.484,-5.024 z m -6.678,6.867 0,0 -7.484,5.797 10.602,5.517 19.11,-12.999 -14.695,-4.151 c -2.455,1.901 -4.951,4.132 -7.533,5.836 m 24.846,-2.295 0,0 25.279,10.135 c -1.088,-4.389 -1.172,-4.481 3.196,-2.403 l -2.165,-6.129 -18.068,-8.557 c -0.661,-0.285 -0.609,-1.973 -0.697,-2.579 l -11.525,-6.014 3.98,15.547 z m 17.046,22.503 0,0 1.361,0.505 2.913,-1.697 -1.202,-0.597 -3.072,1.789 z m 2.001,-6.668 0,0 -2.311,1.279 0.57,1.588 2.292,-1.264 -0.551,-1.603 z m -21.776,5.636 0,0 0.656,1.386 4.771,-2.956 -0.707,-1.491 -4.72,3.061 z m 6.438,-1.935 0,0 c 4.274,-0.373 8.25,-0.53 12.55,-0.587 l -0.556,-1.545 -1.827,0.005 0.071,0.53 c -0.792,0.147 -3.695,0.175 -4.815,0.312 -0.109,-0.191 -0.132,-0.29 -0.214,-0.548 l -5.885,0.406 0.676,1.427 z m 21.099,-1.947 0,0 -4.404,0.617 c -3.3,1.819 -6.547,3.632 -9.79,5.564 2.731,-0.473 4.931,-1.137 7.635,-0.14 l 8.837,-5.235 -2.278,-0.806 z m -8.886,2.399 0,0 c -4.601,0.061 -7.796,0.239 -12.367,0.639 l -3.665,2.271 c 4.501,-0.39 8.016,-0.765 12.556,-0.881 l 3.476,-2.029 z m 7.837,-1.396 0,0 -3.086,1.798 1.215,0.59 3.242,-1.857 -1.371,-0.531 z m -0.061,-3.36 0,0 -3.638,0.253 0.556,1.612 3.551,-0.497 -0.469,-1.368 z m 2.723,-0.904 0,0 -2.138,-0.69 1.026,2.984 2.167,0.774 -1.055,-3.068 z m -10.757,2.007 0,0 9.008,-4.986 -25.415,-9.879 -19.343,12.67 18.626,5.232 3.357,-2.176 c 0.552,-0.407 6.731,-0.608 7.615,-0.554 0.099,-10e-4 0.159,0.95 0.262,0.94 1.014,-0.098 2.6,-0.049 3.348,-0.114 0.185,-0.016 -0.186,-0.945 -10e-4,-0.965 0.805,-0.083 1.559,-0.165 2.543,-0.168 m 7.507,-2.631 0,0 -1.011,0.561 1.176,-0.082 -0.165,-0.479 z m 4.999,-1.139 0,0 -1.726,-0.671 -1.503,0.832 1.846,0.595 1.383,-0.756 z m -0.553,-3.759 0,0 -1.461,-0.695 0.692,2.793 1.709,0.664 -0.94,-2.762 z m -109.367,-67.389 0,0 c -2.863,-14.687 -18.938,-16.745 -27.692,-12.987 7.741,6.876 17.476,11.472 27.692,12.987 m 19.818,-0.931 0,0 c -4.411,-2.508 -15.301,-5.305 -19.508,-4.785 2.017,8.43 13.414,6.029 19.508,4.785 m 70.862,83.312 0,0 1.236,-0.766 c -0.552,0.006 -0.588,0.03 -1.22,0.068 l -0.016,0.698 z m -126.247,-46.826 0,0 c 9.108,-1.808 18.99,-2.726 27.947,0.379 9.162,3.176 19.336,7.046 28.508,10.194 4.445,1.48 9.014,-9.681 6.061,-12.151 -0.131,-0.111 -1.498,-0.601 -1.659,-0.66 -9.47,-3.482 -18.93,-6.998 -28.466,-10.303 -15.184,-5.265 -30.644,-2.671 -45.603,1.184 4.119,3.844 8.872,7.766 13.212,11.357 m 30.957,4.219 0,0 c -9.529,-3.312 -18.812,-4.247 -28.802,-2.334 1.516,1.24 3.043,2.478 4.586,3.715 4.101,3.287 17.68,4.484 21.9,1.911 1.303,-1.226 1.751,-1.792 2.316,-3.292 m 67.638,-1.01 0,0 1.877,15.019 14.884,4.204 -3.602,-15.695 -13.159,-3.528 z m -41.454,-20.22 0,0 c -2.033,0.292 3.266,1.695 4.556,1.382 0.544,-0.187 0.75,-1.613 -0.244,-2.197 -0.644,-0.314 -2.874,0.543 -4.312,0.815 m -195.653,-31.078 0,0 -10.476,-2.278 c -6.22,-1.35 -6.845,-0.707 -9.866,5.792 -0.553,1.191 -3.385,6.753 -1.747,7.753 7.104,1.493 17.447,-5.943 22.089,-11.267 m 16.472,16.201 0,0 c 0.588,-3.405 1.331,-6.755 2.223,-10.045 -4.025,2.003 -8.587,5.021 -11.575,7.081 -1.838,1.268 -2.083,1.182 -2.56,3.3 4.507,0.979 7.352,1.419 11.912,-0.336 m 6.225,-22.024 0,0 c 1.146,-2.867 2.412,-5.676 3.788,-8.418 -3.183,2.188 -6.225,4.322 -8.832,7.174 l 5.044,1.244 z m 6.039,-12.67 0,0 c 0.573,-1.029 1.161,-2.049 1.766,-3.058 -4.749,-1.399 -19.105,-0.248 -20.54,6.081 -2.714,11.964 16.314,-1.159 18.774,-3.023 m 96.042,-0.544 0,0 c -4.819,0.699 -10.889,3.603 -15.646,5.261 -0.063,-0.139 -0.739,-0.491 -2.078,-1.248 -25.448,-14.156 -56.892,24.578 -40.888,48.117 2.105,3.096 4.806,5.807 7.696,8.172 5.451,4.459 14.559,3.61 21.085,2.611 3.121,0.256 12.661,9.469 14.103,11.127 -14.37,3.335 -31.408,7.082 -43.876,-3.119 -6.71,-5.49 -12.23,-12.488 -15.27,-20.658 1.092,-22.211 11.349,-41.832 27.979,-54.658 l 41.887,0 c 1.691,1.351 3.728,3.237 5.008,4.395 m -11.692,78.151 0,0 c -0.608,-0.589 -1.287,-1.363 -1.776,-1.902 -1.915,0.473 -4.766,1.271 -7.247,1.902 l 9.023,0 z m -40.662,0 0,0 c -9.816,-4.298 -17.447,-12.549 -22.588,-21.835 0.213,7.621 1.585,14.955 3.948,21.836 l 18.64,-10e-4 z m -55.866,-57.062 0,0 c -8.864,-2.67 -23.819,4.041 -29.165,11.276 11.888,4.459 22.145,-4.196 31.423,-10.595 l -2.258,-0.681 z m -26.281,-16.382 0,0 c 0.562,2.4 6.572,5.364 7.416,1.638 0.415,-1.822 -0.086,-4.43 -0.777,-6.098 -1.472,0.407 -7.157,2.254 -6.639,4.46 m 7.098,-13.464 0,0 c -2.36,-0.515 -9.493,1.289 -10.114,4.026 -0.471,2.085 0.743,4.3 2.881,4.764 3.074,0.666 11.067,-7.957 7.233,-8.79 m 14.277,6.245 0,0 c 2.422,-0.596 4.666,-1.886 6.8,-3.08 -2.977,-0.781 -5.77,-1.803 -7.994,1.322 l -1.77,2.486 2.964,-0.728 z m 83.306,41.636 0,0 3.463,0.785 -5.695,2.229 c -9.245,3.099 -16.606,10.493 -26.606,5.311 4.486,-3.039 8.617,-5.088 13.562,-7.336 5.675,-2.577 9.329,-2.334 15.276,-0.989 m 14.688,8.328 0,0 c -2.74,-2.765 -6.561,-3.636 -10.267,-4.248 -1.659,-0.275 -8.15,2.582 -9.96,3.372 -3.556,1.55 -6.782,2.904 -10.029,5.054 4.536,5.797 13.433,2.557 19.165,0.891 4.489,-1.305 7.959,-1.705 12.15,-3.998 l -1.059,-1.071 z m 11.521,9.723 0,0 c -0.294,-1.257 -1.901,-2.613 -2.967,-3.287 -5.326,-3.367 -10.565,-1.658 -16.044,0.184 -3.688,1.238 -5.566,1.402 -9.231,3.296 6.245,5.342 15.518,3.275 22.865,2.124 1.869,-0.293 3.851,-0.686 5.603,-1.35 l -0.226,-0.967 z m -33.289,-43.952 0,0 c -4.94,-1.112 -7.85,1.267 -11.759,3.733 -4.227,2.672 -6.594,4.074 -10.462,7.245 l 6.324,1.371 c 3.994,0.869 15.494,-7.071 16.726,-10.895 l 0.381,-1.182 -1.21,-0.272 z m -8.12,14.518 0,0 0.741,1.237 c 10.978,2.399 20.421,-7.385 20.056,-17.955 -5.335,-0.986 -12.679,8.605 -16.23,11.908 -1.695,1.575 -3.589,2.038 -4.865,4.254 l 0.298,0.556 z m 17.575,-0.029 0,0 c 9.549,2.084 14.902,-14.213 16.402,-20.789 -8.52,-1.902 -10.609,8.201 -13.992,13.756 l -3.884,6.711 1.474,0.322 z m -17.608,-18.125 0,0 c 1.412,1.897 17.095,2.103 20.212,-0.632 1.443,-1.487 3.744,-1.674 5.937,-2.577 -9.134,-4.949 -18.14,-2.837 -26.149,3.209 m -11.255,41.594 0,0 c 1.733,2.281 4.703,5.26 7.008,7.146 3.916,3.204 10.02,3.567 16.383,2.811 -2.536,-2.819 -7.269,-4.1 -10.493,-5.034 -3.576,-0.904 -4.811,-4.627 -7.916,-4.312 -1.483,0.153 -3.609,-0.386 -4.982,-0.611 m 158.762,-35.349 0,0 c -5.076,6.712 -12.18,10.634 -19.912,13.544 -20.772,7.821 -45.454,6.7 -63.214,-9.465 -2.845,-0.494 -5.656,1.821 -8.566,1.665 -2.821,-0.131 -5.623,0.109 -8.393,0.597 16.791,18.202 38.936,29.455 64.466,25.372 16.313,-2.608 36.954,-9.034 46.686,-23.702 -2.175,-4.34 -6.422,-7.051 -11.067,-8.011 m 13.615,6.181 0,0 c 0.272,0.51 0.524,1.035 0.75,1.581 -2.475,3.648 -5.497,6.954 -8.852,9.808 2.145,11.676 2.517,23.476 0.985,35.238 0.292,0.395 0.511,0.824 0.63,1.275 l 1.585,-1.043 c 0.477,-0.318 14.212,3.231 15.242,3.881 1.573,0.823 13.301,6.212 13.463,7.341 l 0.002,-10e-4 0.295,2.04 18.016,8.533 c 0.168,0.08 0.288,0.221 0.346,0.383 l 2.795,7.91 c 0.246,0.698 -0.645,0.98 -1.109,1.228 1.033,3.038 1.143,2.581 -1.671,4.12 0.245,0.707 1.942,4.192 1.085,4.605 -1.23,0.722 -9.286,6.089 -10.204,5.769 -1.319,-0.414 -2.191,-0.696 -4.001,-0.66 -1.878,0.038 -5.756,1.622 -5.99,0.946 l -0.005,-1.713 c -3.38,0.204 -7.678,0.804 -10.635,1.06 -0.735,0.064 -1.387,-2.116 -1.642,-2.654 -0.2,-0.425 0.266,-0.841 0.805,-1.172 l -18.739,-5.293 c -0.054,-0.012 -0.11,-0.032 -0.163,-0.059 l -9.222,-4.799 c -17.556,37.405 -55.814,63.715 -99.835,63.715 -60.695,-0.012 -109.914,-49.267 -109.914,-110.003 0,-5.214 0.369,-10.341 1.072,-15.36 -1.752,-0.078 -4.006,-0.039 -5.158,-0.244 -3.535,-0.637 -7.005,-1.787 -10.555,-2.307 -0.909,0.109 -2.891,0.225 -4.781,-0.256 -3.692,-0.821 -7.387,-1.625 -11.084,-2.425 -4.658,-1.006 -12.005,0.021 -10.783,-5.393 4.566,-1.965 3.486,-12.729 8.341,-14.99 2.739,-1.251 10.109,0.726 12.636,1.275 1.682,0.367 3.069,1.445 4.87,1.836 l 20.903,3.561 c 0.493,-1.504 1.018,-2.993 1.573,-4.468 -2.287,-0.416 -5.123,-1.173 -7.114,-1.607 -5.4,-1.871 -12.981,-4.824 -18.834,-2.583 l -4.236,-0.398 c -6.553,-2.011 -6.909,-12.109 -5.664,-17.613 0.894,-3.946 8.578,-6.995 11.902,-4.13 1.409,1.22 5.084,0.183 6.72,0.539 9,1.956 17.997,3.291 26.487,6.922 19.354,-31.41 54.046,-52.354 93.619,-52.362 45.862,-0.627 85.311,28.542 101.792,68.512 l 0.625,0.102 c 0.586,-2.202 2.641,-7.922 -0.975,-9.042 -1.554,-0.478 -0.822,-2.861 0.732,-2.383 4.286,1.329 4.269,5.074 3.484,8.776 1.562,-3.769 4.532,-11.004 1.789,-14.662 -1.17,-1.559 1.22,-3.352 2.39,-1.793 3.719,4.961 0.448,13.239 -1.711,18.297 3.762,-6.96 7.333,-16.564 5.796,-24.477 -0.403,-2.111 2.832,-2.728 3.236,-0.618 1.659,8.542 -1.946,19.009 -6.058,26.518 6.458,-10.033 11.15,-22.988 10.082,-35.015 -0.196,-2.265 3.276,-2.566 3.472,-0.3 1.143,12.863 -3.77,26.688 -10.747,37.394 4.993,-5.901 10.129,-12.916 12.186,-20.439 0.563,-2.069 3.735,-1.206 3.171,0.865 -2.058,7.524 -7.007,14.566 -11.886,20.543 3.151,-2.908 7.464,-5.532 13.149,-3.737 1.865,0.588 0.964,3.448 -0.902,2.858 -5.895,-1.86 -10.064,2.798 -13.556,6.568 m -176.744,16.357 c 0.068,1.377 0.259,2.715 0.563,4.013 2.987,1.075 12.172,-4.995 14.136,-6.381 -4.858,-1.055 -10.533,-0.905 -14.699,2.368 m -17.995,-48.996 3.235,2.715 c 0.552,0.463 1.165,1.039 1.336,1.246 0.018,-0.768 0.3,-1.441 0.871,-2.121 2.005,-2.39 5.4,-2.329 8.342,0.139 2.924,2.453 3.518,5.521 1.513,7.912 -0.71,0.846 -1.572,1.344 -2.614,1.503 0.226,0.253 0.343,0.413 0.428,0.61 l -1.851,2.206 c -0.229,-0.473 -0.829,-1.29 -3.145,-3.234 l -9.781,-8.207 1.666,-2.769 z m 11.128,9.401 c 0.495,0.008 1.24,-0.245 1.625,-0.705 1.081,-1.287 0.773,-2.265 -1.249,-3.961 -2.096,-1.76 -3.417,-2.053 -4.342,-0.949 -0.37,0.441 -0.538,1.052 -0.519,1.85 l 4.485,3.765 z m -9.196,3.218 c -1.453,0.649 -2.516,1.399 -3.063,2.274 -0.623,0.998 -0.376,1.463 0.784,2.187 l 0.427,0.268 c 0.158,-0.298 0.234,-0.42 0.361,-0.623 2.073,-3.318 4.269,-4.295 6.711,-2.769 2.076,1.297 2.472,3.299 1.022,5.62 -0.534,0.854 -1.196,1.46 -1.883,1.738 -0.27,0.114 -0.336,0.13 -0.944,0.287 0.364,0.596 0.479,1.46 0.349,2.257 l -2.575,0.4 c -0.095,-1.164 -0.408,-1.613 -1.527,-2.312 -0.061,-0.039 -0.122,-0.077 -0.183,-0.116 l -3.539,-2.127 c -1.119,-0.699 -1.42,-0.943 -1.758,-1.353 -0.905,-1.131 -0.806,-2.738 0.287,-4.489 0.598,-0.956 1.328,-1.718 2.392,-2.468 0.742,-0.555 1.063,-0.75 1.91,-1.155 l 1.229,2.381 z m 2.31,7.217 c 0.703,-0.128 1.285,-0.47 1.603,-0.98 0.432,-0.692 0.201,-1.544 -0.613,-2.053 -1.242,-0.775 -1.995,-0.341 -3.178,1.553 l -0.076,0.121 2.264,1.359 z m -8.249,3.757 7.498,3.339 -1.308,2.937 -7.937,-3.533 c -0.88,0.264 -1.45,0.72 -1.743,1.377 -0.146,0.329 -0.188,0.6 -0.162,0.953 l -2.948,-0.339 c 0.008,-0.549 0.051,-0.766 0.247,-1.206 0.147,-0.328 0.388,-0.693 0.605,-0.886 0.508,-0.43 1.411,-0.868 2.167,-1.032 -0.616,-0.326 -1.052,-0.705 -1.395,-1.172 l 1.873,-2.32 c 0.528,0.526 1.59,1.208 3.103,1.882 m -4.271,8.385 8.276,2.218 -0.813,3.037 -8.647,-2.318 c -0.784,0.511 -1.296,1.218 -1.452,1.798 -0.229,0.858 0.063,1.16 1.546,1.557 l 7.72,2.068 -0.789,2.946 -8.531,-2.288 c -0.782,0.512 -1.394,1.217 -1.55,1.797 -0.217,0.812 0.018,1.049 1.432,1.427 l 7.836,2.1 -0.808,3.013 -8.439,-2.26 c -1.623,-0.436 -2.262,-0.83 -2.661,-1.658 -0.321,-0.657 -0.363,-1.612 -0.115,-2.54 0.348,-1.298 1.049,-2.154 2.454,-2.945 -0.262,-0.318 -0.336,-0.414 -0.455,-0.619 -0.481,-0.801 -0.589,-1.698 -0.328,-2.672 0.292,-1.09 0.977,-1.975 1.982,-2.574 -0.571,-0.279 -0.825,-0.446 -1.094,-0.741 l 1.517,-2.6 c 0.493,0.479 1.203,0.794 2.919,1.254 m -8.965,23.579 c 0.199,-2.848 1.935,-4.627 4.329,-4.461 0.791,0.056 1.658,0.381 2.155,0.85 0.496,0.466 1.001,1.513 1.087,2.338 l 0.164,1.454 c 0.148,1.309 0.537,1.938 1.375,1.997 0.79,0.054 1.439,-0.621 1.503,-1.532 0.097,-1.388 -0.574,-3.143 -1.104,-4.167 l 2.426,-0.985 c 0.809,1.861 1.176,3.547 1.071,5.055 -0.22,3.137 -2.094,5.123 -4.633,4.945 -0.814,-0.057 -1.493,-0.32 -2.036,-0.816 -0.52,-0.469 -0.94,-1.004 -1.218,-2.539 l -0.279,-1.511 c -0.209,-1.146 -0.515,-1.575 -1.138,-1.619 -0.718,-0.05 -1.241,0.538 -1.306,1.471 -0.064,0.911 0.139,1.815 0.675,3.08 l -2.228,0.903 c -0.472,-1.164 -0.98,-2.499 -0.843,-4.463 m 0.007,11.594 c -1.247,0.045 -2.564,0.162 -3.687,0.321 l 0.701,-3.29 c 0.908,-0.152 1.724,-0.181 2.922,-0.223 l -0.042,-1.222 2.087,-0.074 0.042,1.224 6.764,-0.236 c 1.128,-0.039 1.368,-0.024 1.903,0.149 1.091,0.321 1.861,1.616 1.918,3.247 0.029,0.84 -0.109,1.686 -0.464,2.634 l -1.933,-0.341 c 0.148,-0.582 0.21,-0.871 0.199,-1.16 -0.038,-1.103 -0.456,-1.377 -2.015,-1.322 l -6.26,0.219 0.072,2.062 -2.106,0.891 -0.101,-2.879 z m 4.129,5.753 c -0.695,1.43 -1.028,2.688 -0.884,3.711 0.163,1.165 0.652,1.362 2.007,1.171 l 0.499,-0.069 c -0.071,-0.33 -0.091,-0.473 -0.124,-0.711 -0.545,-3.873 0.509,-6.033 3.361,-6.433 2.424,-0.341 4.014,0.938 4.395,3.648 0.14,0.998 0.023,1.887 -0.326,2.541 -0.133,0.262 -0.173,0.315 -0.538,0.827 0.661,0.222 1.305,0.81 1.718,1.504 l -1.716,1.962 c -0.82,-0.83 -1.348,-0.975 -2.656,-0.791 -0.07,0.01 -0.142,0.021 -0.214,0.031 l -4.077,0.645 c -1.307,0.183 -1.694,0.19 -2.217,0.094 -1.421,-0.286 -2.379,-1.581 -2.666,-3.624 -0.157,-1.117 -0.087,-2.169 0.245,-3.427 0.213,-0.903 0.332,-1.259 0.721,-2.114 l 2.472,1.035 z m 6.409,4.044 c 0.456,-0.55 0.682,-1.188 0.598,-1.782 -0.113,-0.808 -0.838,-1.312 -1.789,-1.178 -1.45,0.204 -1.747,1.021 -1.437,3.231 l 0.02,0.143 2.608,-0.414 z m -11.659,17.077 4.06,-1.163 c 0.692,-0.2 1.513,-0.385 1.78,-0.411 -0.627,-0.445 -1.026,-1.054 -1.272,-1.908 -0.859,-3 1.09,-5.78 4.781,-6.838 3.668,-1.052 6.545,0.17 7.405,3.168 0.304,1.063 0.235,2.056 -0.216,3.009 0.337,-0.046 0.534,-0.054 0.745,-0.013 l 0.794,2.768 c -0.52,-0.076 -1.532,-0.035 -4.44,0.799 l -12.273,3.519 -1.364,-2.93 z m 14.017,-3.969 c 0.283,-0.405 0.49,-1.164 0.324,-1.741 -0.462,-1.614 -1.445,-1.907 -3.983,-1.18 -2.63,0.754 -3.612,1.686 -3.215,3.069 0.159,0.554 0.571,1.035 1.244,1.466 l 5.63,-1.614 z m -4.43,13.582 c -1.132,0.527 -2.298,1.15 -3.269,1.736 l -0.64,-3.303 c 0.776,-0.494 1.515,-0.84 2.603,-1.347 l -0.518,-1.109 1.893,-0.882 0.517,1.109 6.134,-2.86 c 1.022,-0.477 1.25,-0.557 1.81,-0.606 1.131,-0.13 2.345,0.761 3.035,2.239 0.354,0.762 0.557,1.594 0.601,2.606 l -1.913,0.442 c -0.09,-0.593 -0.147,-0.885 -0.269,-1.146 -0.466,-1 -0.958,-1.089 -2.372,-0.429 l -5.677,2.647 0.872,1.87 -1.591,1.643 -1.216,-2.61 z m 9.656,11.005 6.659,-5.392 1.979,2.444 -6.958,5.634 c -0.047,0.933 0.224,1.764 0.602,2.23 0.559,0.69 0.974,0.631 2.168,-0.336 l 6.211,-5.029 1.918,2.369 -6.864,5.558 c -0.047,0.934 0.165,1.843 0.543,2.31 0.528,0.652 0.858,0.602 1.996,-0.319 l 6.304,-5.106 1.963,2.425 -6.789,5.498 c -1.305,1.057 -2.001,1.342 -2.905,1.179 -0.721,-0.127 -1.519,-0.655 -2.123,-1.401 -0.846,-1.044 -1.126,-2.114 -0.94,-3.716 -0.412,0.025 -0.532,0.029 -0.769,0.004 -0.929,-0.08 -1.719,-0.522 -2.354,-1.305 -0.71,-0.877 -1.024,-1.95 -0.918,-3.117 -0.56,0.3 -0.844,0.406 -1.242,0.45 l -1.212,-2.755 c 0.679,-0.117 1.35,-0.507 2.731,-1.625 m 21.386,14.134 c -1.269,-1.065 -2.68,-0.839 -3.899,0.613 l -0.062,0.074 5.442,4.566 c -0.247,0.295 -0.309,0.368 -0.478,0.57 -1.65,1.967 -3.101,2.912 -4.706,3.069 -1.131,0.117 -2.469,-0.38 -3.554,-1.29 -1.25,-1.049 -1.848,-2.24 -1.895,-3.752 -0.056,-1.613 0.535,-3.029 1.955,-4.72 2.484,-2.96 5.837,-3.409 8.54,-1.142 1.324,1.111 2.106,2.494 2.45,4.286 l -2.19,0.669 c -0.229,-1.258 -0.758,-2.233 -1.603,-2.943 m -5.467,2.556 c -1.095,1.306 -1.178,2.489 -0.241,3.275 0.496,0.417 1,0.526 1.547,0.359 0.514,-0.164 0.896,-0.47 1.482,-1.169 l 0.093,-0.11 -2.85,-2.392 -0.031,0.037 z m 7.604,12.063 c -0.717,1.023 -1.415,2.145 -1.963,3.138 l -2.206,-2.54 c 0.425,-0.816 0.893,-1.485 1.581,-2.468 l -1.003,-0.702 1.198,-1.71 1.003,0.702 3.882,-5.544 c 0.647,-0.924 0.804,-1.107 1.264,-1.429 0.915,-0.679 2.411,-0.515 3.748,0.422 0.688,0.481 1.28,1.101 1.824,1.955 l -1.435,1.339 c -0.376,-0.468 -0.57,-0.692 -0.806,-0.857 -0.905,-0.633 -1.375,-0.465 -2.27,0.813 l -3.593,5.132 1.691,1.183 -0.556,2.218 -2.359,-1.652 z m 7.175,0.084 c 0.724,1.416 1.529,2.439 2.432,2.939 1.028,0.57 1.48,0.299 2.143,-0.897 l 0.245,-0.441 c -0.306,-0.142 -0.432,-0.212 -0.642,-0.328 -3.421,-1.896 -4.512,-4.038 -3.115,-6.557 1.186,-2.141 3.165,-2.64 5.558,-1.314 0.881,0.489 1.52,1.117 1.834,1.79 0.128,0.263 0.147,0.328 0.337,0.927 0.575,-0.394 1.432,-0.555 2.234,-0.467 l 0.534,2.551 c -1.156,0.155 -1.589,0.491 -2.229,1.645 -0.035,0.063 -0.07,0.126 -0.105,0.189 l -1.938,3.645 c -0.64,1.155 -0.868,1.468 -1.26,1.827 -1.083,0.964 -2.693,0.949 -4.499,-0.052 -0.986,-0.546 -1.784,-1.235 -2.589,-2.258 -0.593,-0.713 -0.805,-1.023 -1.254,-1.847 l 2.314,-1.352 z m 7.086,-2.685 c -0.164,-0.696 -0.537,-1.259 -1.062,-1.55 -0.714,-0.396 -1.553,-0.12 -2.018,0.72 -0.71,1.28 -0.236,2.01 1.716,3.092 l 0.126,0.07 1.238,-2.332 z m 4.744,4.859 5.378,2.064 -0.998,2.6 -5.378,-2.065 0.998,-2.599 z m 7.605,6.208 2.125,-7.929 3.106,0.832 -2.249,8.393 c 0.399,0.827 0.939,1.319 1.634,1.505 0.348,0.094 0.621,0.093 0.967,0.011 l 0.124,2.966 c -0.542,0.078 -0.764,0.068 -1.227,-0.056 -0.348,-0.093 -0.747,-0.275 -0.971,-0.459 -0.504,-0.434 -1.079,-1.258 -1.358,-1.979 -0.226,0.66 -0.531,1.15 -0.94,1.562 l -2.583,-1.487 c 0.435,-0.604 0.943,-1.76 1.372,-3.359 m 8.192,8.564 1.73,-14.094 3.24,0.398 -1.074,8.742 c 0.636,0.731 1.602,1.333 2.388,1.43 0.905,0.111 1.295,-0.301 1.444,-1.515 l 1.005,-8.195 3.121,0.383 -1.047,8.528 c -0.17,1.382 -0.265,1.563 -0.588,2.224 -0.507,0.979 -1.881,1.535 -3.381,1.351 -1.239,-0.152 -2.556,-0.846 -3.294,-1.734 -0.017,0.142 -0.031,0.649 -0.078,1.029 l -0.297,2.422 c -0.143,1.16 -0.354,2.29 -0.578,2.936 l -3.171,-1.159 c 0.205,-0.479 0.44,-1.606 0.58,-2.746 m 19.994,-10.683 c -1.657,-0.029 -2.611,1.034 -2.644,2.93 l -0.002,0.095 7.103,0.125 c -0.007,0.384 -0.008,0.48 -0.013,0.744 -0.045,2.567 -0.578,4.214 -1.726,5.346 -0.806,0.803 -2.158,1.259 -3.574,1.234 -1.631,-0.028 -2.846,-0.577 -3.834,-1.723 -1.059,-1.219 -1.49,-2.69 -1.451,-4.898 0.067,-3.864 2.391,-6.324 5.918,-6.262 1.729,0.03 3.207,0.612 4.602,1.789 l -1.282,1.898 c -0.969,-0.833 -1.993,-1.259 -3.097,-1.278 m -2.64,5.426 c -0.03,1.704 0.65,2.676 1.874,2.698 0.648,0.011 1.107,-0.222 1.428,-0.696 0.296,-0.451 0.4,-0.929 0.416,-1.841 l 0.003,-0.144 -3.72,-0.065 -10e-4,0.048 z m 9.29,-7.754 3.192,-0.392 1.533,12.482 -3.253,-0.108 -1.472,-11.982 z m 1.553,15.599 c -0.134,-1.096 0.638,-2.085 1.711,-2.217 1.095,-0.135 2.086,0.639 2.219,1.735 0.135,1.095 -0.614,2.082 -1.686,2.213 -1.096,0.135 -2.109,-0.635 -2.244,-1.731 m 6.853,-7.35 -2.004,-8.675 3.134,-0.724 1.954,8.465 c 0.877,0.488 1.792,0.72 2.424,0.574 0.818,-0.189 0.96,-0.641 0.648,-1.997 l -1.798,-7.787 3.086,-0.713 2.019,8.747 c 0.173,0.748 0.222,1.278 0.16,1.76 -0.136,1.116 -1.143,2.087 -2.476,2.395 -0.701,0.162 -1.564,0.164 -2.271,-0.018 -0.578,-0.162 -0.741,-0.223 -1.584,-0.57 0.114,0.491 0.069,1.043 -0.099,1.599 l -2.966,-0.152 c 0.097,-0.86 0.011,-1.875 -0.227,-2.904 m 11.509,-6.88 5.478,-1.78 0.86,2.648 -5.478,1.78 -0.86,-2.648 z m 10.711,-0.257 -4.154,-7.494 2.75,-1.524 4.34,7.829 c 0.911,0.209 1.776,0.086 2.3,-0.205 0.778,-0.431 0.792,-0.85 0.047,-2.193 l -3.875,-6.99 2.666,-1.478 4.282,7.725 c 0.912,0.208 1.844,0.157 2.369,-0.134 0.735,-0.407 0.742,-0.74 0.032,-2.02 l -3.933,-7.095 2.729,-1.513 4.235,7.641 c 0.815,1.469 0.975,2.204 0.657,3.065 -0.25,0.688 -0.908,1.382 -1.748,1.848 -1.175,0.651 -2.278,0.741 -3.823,0.28 -0.047,0.411 -0.063,0.529 -0.129,0.758 -0.241,0.902 -0.812,1.603 -1.694,2.092 -0.987,0.546 -2.099,0.669 -3.23,0.362 0.199,0.604 0.254,0.903 0.228,1.302 l -2.924,0.714 c 0.003,-0.687 -0.264,-1.417 -1.125,-2.97 m 17.756,-10.827 c 1.587,-0.113 2.843,-0.455 3.656,-1.09 0.927,-0.723 0.854,-1.245 0.012,-2.324 l -0.311,-0.396 c -0.25,0.225 -0.363,0.314 -0.552,0.461 -3.082,2.409 -5.48,2.576 -7.253,0.307 -1.507,-1.93 -1.195,-3.946 0.962,-5.63 0.794,-0.621 1.623,-0.964 2.364,-0.989 0.292,-0.016 0.36,-0.007 0.985,0.052 -0.138,-0.683 0.049,-1.535 0.444,-2.239 l 2.556,0.504 c -0.309,1.125 -0.169,1.656 0.644,2.696 0.044,0.056 0.089,0.113 0.133,0.17 l 2.597,3.209 c 0.814,1.04 1.012,1.372 1.19,1.873 0.464,1.373 -0.179,2.85 -1.805,4.121 -0.89,0.694 -1.836,1.159 -3.092,1.501 -0.887,0.267 -1.256,0.341 -2.189,0.432 l -0.341,-2.658 z m 0.297,-7.572 c -0.703,-0.121 -1.368,0.003 -1.841,0.372 -0.644,0.503 -0.717,1.383 -0.126,2.139 0.901,1.154 1.758,1.002 3.517,-0.372 l 0.113,-0.088 -1.663,-2.051 z m 2.87,-6.346 2.233,-2.313 9.047,8.736 -2.597,1.963 -8.683,-8.386 z m 11.023,11.146 c -0.794,-0.767 -0.816,-2.022 -0.066,-2.8 0.767,-0.794 2.023,-0.816 2.817,-0.049 0.794,0.767 0.832,2.006 0.082,2.782 -0.766,0.795 -2.039,0.834 -2.833,0.067 m 0.007,-10.092 -6.92,-5.604 2.024,-2.499 6.752,5.468 c 0.99,-0.156 1.854,-0.537 2.262,-1.04 0.529,-0.653 0.363,-1.096 -0.719,-1.973 l -6.211,-5.029 1.994,-2.462 6.975,5.649 c 0.597,0.483 0.962,0.872 1.211,1.289 0.579,0.963 0.384,2.349 -0.477,3.412 -0.453,0.559 -1.132,1.092 -1.8,1.384 -0.557,0.229 -0.722,0.28 -1.601,0.526 0.393,0.317 0.697,0.78 0.908,1.321 l -2.432,1.706 c -0.453,-0.738 -1.146,-1.484 -1.966,-2.148 m -63.418,-144.745 c 0.504,0.036 1.008,0.036 1.476,0.036 1.584,0 2.664,-0.144 3.347,-0.431 0.973,-0.469 1.584,-1.549 1.584,-2.737 0,-3.281 -3.42,-5.549 -8.423,-5.549 -1.152,0 -1.62,0.036 -2.736,0.251 l 1.152,-3.348 c 1.368,-0.18 1.872,-0.18 2.988,-0.18 7.452,0 12.672,3.456 12.672,8.43 0,2.52 -1.584,4.572 -4.284,5.472 0.648,0.252 0.864,0.36 1.332,0.649 1.512,1.008 2.376,2.699 2.376,4.643 0,3.601 -3.276,6.264 -7.776,6.264 -1.728,0 -3.492,-0.395 -5.256,-1.116 -1.224,-0.539 -2.124,-1.043 -3.24,-1.908 l 2.52,-3.06 c 1.08,0.9 2.916,2.017 5.328,2.017 2.088,0 3.06,-1.153 3.06,-2.701 0,-1.908 -1.332,-2.844 -3.996,-2.844 -0.469,0 -1.296,0.037 -2.196,0.108 l -0.288,0.036 0,-4.032 0.36,0 z m -13.284,-1.296 c -1.188,0 -2.7,-0.072 -3.492,-0.179 0.36,0.179 0.756,0.359 0.936,0.467 1.476,0.792 3.636,1.98 4.932,2.952 1.944,1.44 3.384,3.204 3.384,5.833 0,3.527 -2.736,5.904 -7.02,5.904 -3.708,0 -6.48,-1.26 -9.072,-3.565 l 2.88,-2.988 c 2.016,1.656 3.348,2.305 4.896,2.305 1.692,0 2.88,-0.828 2.88,-2.412 0,-1.657 -1.26,-3.277 -6.228,-6.084 -2.124,-1.225 -2.448,-1.225 -3.708,-1.873 l 0,-4.391 15.012,0 1.044,4.031 -6.444,0 z" /><g
       id="g3139"
       transform="translate(160.0811,246.2217)"
       style="fill:#000000"><path
         d="m 0,0 c -0.894,-0.431 -3.012,-0.96 -5.693,-0.96 -7.711,0 -11.683,4.832 -11.683,11.187 0,7.612 5.428,11.815 12.18,11.815 2.614,0 4.6,-0.496 5.494,-0.993 l -1.059,-3.971 c -0.993,0.43 -2.417,0.827 -4.237,0.827 -3.971,0 -7.083,-2.416 -7.083,-7.381 0,-4.467 2.648,-7.281 7.116,-7.281 1.556,0 3.211,0.298 4.236,0.729 L 0,0 z"
         style="fill:#000000;fill-opacity:1;fill-rule:nonzero;stroke:none"
         id="path3141"
         inkscape:connector-curvature="0" /></g><g
       id="g3143"
       transform="translate(163.1611,269.124)"
       style="fill:#000000"><path
         d="m 0,0 5.03,0 0,-9.267 0.067,0 c 0.529,0.729 1.191,1.291 1.986,1.688 0.761,0.397 1.688,0.629 2.614,0.629 3.21,0 5.659,-2.217 5.659,-7.115 l 0,-9.433 -5.03,0 0,8.903 c 0,2.118 -0.728,3.574 -2.615,3.574 -1.324,0 -2.151,-0.86 -2.515,-1.787 C 5.063,-13.105 5.03,-13.536 5.03,-13.9 l 0,-9.598 -5.03,0 L 0,0 z"
         style="fill:#000000;fill-opacity:1;fill-rule:nonzero;stroke:none"
         id="path3145"
         inkscape:connector-curvature="0" /></g><g
       id="g3147"
       transform="translate(191.1626,253.2715)"
       style="fill:#000000"><path
         d="m 0,0 c -2.648,0 -4.7,-0.629 -4.7,-2.549 0,-1.291 0.861,-1.92 1.986,-1.92 1.225,0 2.284,0.828 2.614,1.854 0.067,0.265 0.1,0.563 0.1,0.861 L 0,0 z m 4.865,-3.74 c 0,-1.523 0.066,-3.012 0.265,-3.906 l -4.534,0 -0.298,1.623 -0.1,0 c -1.059,-1.291 -2.714,-1.987 -4.633,-1.987 -3.276,0 -5.229,2.383 -5.229,4.965 0,4.203 3.773,6.189 9.498,6.189 l 0,0.199 c 0,0.893 -0.463,2.118 -2.945,2.118 -1.655,0 -3.409,-0.563 -4.468,-1.225 l -0.927,3.243 c 1.126,0.629 3.343,1.457 6.288,1.457 5.395,0 7.083,-3.177 7.083,-7.017 l 0,-5.659 z"
         style="fill:#000000;fill-opacity:1;fill-rule:nonzero;stroke:none"
         id="path3149"
         inkscape:connector-curvature="0" /></g><g
       id="g3151"
       transform="translate(204.3037,253.7344)"
       style="fill:#000000"><path
         d="m 0,0 c 0,-2.78 1.159,-4.865 3.31,-4.865 1.985,0 3.21,1.953 3.21,4.898 0,2.383 -0.927,4.832 -3.21,4.832 C 0.927,4.865 0,2.383 0,0 m 11.716,0.166 c 0,-5.925 -4.203,-8.639 -8.539,-8.639 -4.732,0 -8.373,3.112 -8.373,8.341 0,5.262 3.442,8.605 8.671,8.605 4.932,0 8.241,-3.41 8.241,-8.307"
         style="fill:#000000;fill-opacity:1;fill-rule:nonzero;stroke:none"
         id="path3153"
         inkscape:connector-curvature="0" /></g><g
       id="g3155"
       transform="translate(219.1001,249.9951)"
       style="fill:#000000"><path
         d="m 0,0 c 0.927,-0.563 2.846,-1.192 4.335,-1.192 1.523,0 2.152,0.497 2.152,1.324 0,0.86 -0.497,1.258 -2.35,1.887 -3.376,1.125 -4.667,2.945 -4.634,4.865 0,3.045 2.582,5.328 6.587,5.328 1.886,0 3.541,-0.463 4.534,-0.96 L 9.763,7.777 C 9.035,8.175 7.612,8.704 6.255,8.704 c -1.224,0 -1.92,-0.497 -1.92,-1.291 0,-0.794 0.629,-1.191 2.615,-1.887 3.078,-1.058 4.336,-2.647 4.369,-4.997 0,-3.045 -2.35,-5.262 -6.984,-5.262 -2.118,0 -4.004,0.497 -5.229,1.158 L 0,0 z"
         style="fill:#000000;fill-opacity:1;fill-rule:nonzero;stroke:none"
         id="path3157"
         inkscape:connector-curvature="0" /></g><g
       id="g3159"
       transform="translate(245.3804,249.4316)"
       style="fill:#000000"><path
         d="m 0,0 c 0.43,-0.099 1.159,-0.099 1.754,-0.099 4.6,-0.033 7.612,2.483 7.612,7.811 0,4.634 -2.714,7.083 -7.082,7.083 -1.093,0 -1.854,-0.1 -2.284,-0.199 L 0,0 z m -5.03,18.17 c 1.853,0.298 4.269,0.497 6.784,0.497 4.27,0 7.05,-0.795 9.168,-2.383 2.317,-1.721 3.773,-4.469 3.773,-8.407 0,-4.27 -1.556,-7.215 -3.674,-9.035 -2.35,-1.952 -5.957,-2.879 -10.326,-2.879 -2.614,0 -4.501,0.165 -5.725,0.331 l 0,21.876 z"
         style="fill:#000000;fill-opacity:1;fill-rule:nonzero;stroke:none"
         id="path3161"
         inkscape:connector-curvature="0" /></g><g
       id="g3163"
       transform="translate(271.8271,253.2715)"
       style="fill:#000000"><path
         d="m 0,0 c -2.648,0 -4.7,-0.629 -4.7,-2.549 0,-1.291 0.861,-1.92 1.986,-1.92 1.225,0 2.284,0.828 2.614,1.854 0.067,0.265 0.1,0.563 0.1,0.861 L 0,0 z m 4.865,-3.74 c 0,-1.523 0.066,-3.012 0.265,-3.906 l -4.534,0 -0.298,1.623 -0.1,0 c -1.059,-1.291 -2.714,-1.987 -4.633,-1.987 -3.276,0 -5.229,2.383 -5.229,4.965 0,4.203 3.773,6.189 9.498,6.189 l 0,0.199 c 0,0.893 -0.463,2.118 -2.945,2.118 -1.655,0 -3.409,-0.563 -4.468,-1.225 l -0.927,3.243 c 1.126,0.629 3.343,1.457 6.288,1.457 5.395,0 7.083,-3.177 7.083,-7.017 l 0,-5.659 z"
         style="fill:#000000;fill-opacity:1;fill-rule:nonzero;stroke:none"
         id="path3165"
         inkscape:connector-curvature="0" /></g><g
       id="g3167"
       transform="translate(280.6992,256.4814)"
       style="fill:#000000"><path
         d="m 0,0 c 0,2.383 -0.033,3.938 -0.132,5.329 l 4.302,0 0.199,-2.979 0.132,0 c 0.827,2.382 2.78,3.376 4.369,3.376 0.463,0 0.694,-0.034 1.059,-0.099 l 0,-4.733 C 9.532,0.96 9.134,1.026 8.572,1.026 6.718,1.026 5.461,0.033 5.13,-1.522 5.063,-1.854 5.03,-2.25 5.03,-2.647 l 0,-8.208 -5.03,0 L 0,0 z"
         style="fill:#000000;fill-opacity:1;fill-rule:nonzero;stroke:none"
         id="path3169"
         inkscape:connector-curvature="0" /></g><g
       id="g3171"
       transform="translate(293.2769,256.6475)"
       style="fill:#000000"><path
         d="m 0,0 c 0,2.019 -0.066,3.706 -0.132,5.163 l 4.269,0 0.198,-2.184 0.1,0 c 0.694,1.058 2.151,2.581 4.898,2.581 2.118,0 3.74,-1.092 4.435,-2.781 l 0.066,0 c 0.629,0.862 1.324,1.523 2.119,1.987 0.893,0.496 1.885,0.794 3.077,0.794 3.111,0 5.461,-2.185 5.461,-7.049 l 0,-9.532 -4.898,0 0,8.803 c 0,2.35 -0.761,3.707 -2.384,3.707 -1.191,0 -1.985,-0.795 -2.349,-1.755 -0.099,-0.363 -0.165,-0.86 -0.165,-1.29 l 0,-9.465 -4.899,0 0,9.101 C 9.796,0.099 9.068,1.489 7.447,1.489 6.156,1.489 5.395,0.496 5.096,-0.298 4.931,-0.695 4.898,-1.159 4.898,-1.589 l 0,-9.432 -4.898,0 L 0,0 z"
         style="fill:#000000;fill-opacity:1;fill-rule:nonzero;stroke:none"
         id="path3173"
         inkscape:connector-curvature="0" /></g><g
       id="g3175"
       transform="translate(321.709,249.9951)"
       style="fill:#000000"><path
         d="m 0,0 c 0.927,-0.563 2.847,-1.192 4.336,-1.192 1.522,0 2.151,0.497 2.151,1.324 0,0.86 -0.496,1.258 -2.349,1.887 -3.376,1.125 -4.667,2.945 -4.634,4.865 0,3.045 2.582,5.328 6.586,5.328 1.887,0 3.542,-0.463 4.534,-0.96 L 9.764,7.777 C 9.036,8.175 7.612,8.704 6.256,8.704 c -1.225,0 -1.92,-0.497 -1.92,-1.291 0,-0.794 0.629,-1.191 2.614,-1.887 3.078,-1.058 4.336,-2.647 4.369,-4.997 0,-3.045 -2.349,-5.262 -6.983,-5.262 -2.118,0 -4.005,0.497 -5.23,1.158 L 0,0 z"
         style="fill:#000000;fill-opacity:1;fill-rule:nonzero;stroke:none"
         id="path3177"
         inkscape:connector-curvature="0" /></g><g
       id="g3179"
       transform="translate(341.7344,266.1787)"
       style="fill:#000000"><path
         d="m 0,0 0,-4.368 3.607,0 0,-3.707 -3.607,0 0,-5.859 c 0,-1.952 0.496,-2.845 1.985,-2.845 0.696,0 1.027,0.032 1.49,0.132 l 0.033,-3.806 c -0.629,-0.233 -1.854,-0.431 -3.243,-0.431 -1.622,0 -2.979,0.563 -3.807,1.391 -0.927,0.959 -1.39,2.514 -1.39,4.799 l 0,6.619 -2.151,0 0,3.707 2.151,0 0,3.012 L 0,0 z"
         style="fill:#000000;fill-opacity:1;fill-rule:nonzero;stroke:none"
         id="path3181"
         inkscape:connector-curvature="0" /></g><g
       id="g3183"
       transform="translate(356.8604,253.2715)"
       style="fill:#000000"><path
         d="m 0,0 c -2.647,0 -4.7,-0.629 -4.7,-2.549 0,-1.291 0.861,-1.92 1.986,-1.92 1.225,0 2.283,0.828 2.614,1.854 0.067,0.265 0.1,0.563 0.1,0.861 L 0,0 z m 4.865,-3.74 c 0,-1.523 0.067,-3.012 0.265,-3.906 l -4.534,0 -0.298,1.623 -0.1,0 C -0.86,-7.314 -2.516,-8.01 -4.435,-8.01 c -3.277,0 -5.229,2.383 -5.229,4.965 0,4.203 3.772,6.189 9.498,6.189 l 0,0.199 c 0,0.893 -0.463,2.118 -2.945,2.118 -1.655,0 -3.41,-0.563 -4.468,-1.225 l -0.927,3.243 c 1.125,0.629 3.343,1.457 6.288,1.457 5.395,0 7.083,-3.177 7.083,-7.017 l 0,-5.659 z"
         style="fill:#000000;fill-opacity:1;fill-rule:nonzero;stroke:none"
         id="path3185"
         inkscape:connector-curvature="0" /></g><g
       id="g3187"
       transform="translate(376.3887,254.959)"
       style="fill:#000000"><path
         d="m 0,0 c 0,0.265 0,0.629 -0.066,0.927 -0.298,1.324 -1.39,2.449 -2.946,2.449 -2.316,0 -3.474,-2.052 -3.474,-4.601 0,-2.747 1.356,-4.467 3.441,-4.467 1.456,0 2.648,0.993 2.945,2.416 0.067,0.364 0.1,0.76 0.1,1.158 L 0,0 z m 5.03,14.165 0,-18.666 c 0,-1.82 0.067,-3.74 0.133,-4.832 l -4.468,0 -0.199,2.35 -0.099,0 c -0.993,-1.788 -2.978,-2.714 -5.063,-2.714 -3.84,0 -6.918,3.276 -6.918,8.307 -0.033,5.461 3.376,8.638 7.248,8.638 2.02,0 3.542,-0.727 4.27,-1.82 l 0.066,0 0,8.737 5.03,0 z"
         style="fill:#000000;fill-opacity:1;fill-rule:nonzero;stroke:none"
         id="path3189"
         inkscape:connector-curvature="0" /></g><g
       id="g3191"
       transform="translate(391.0859,266.1787)"
       style="fill:#000000"><path
         d="m 0,0 0,-4.368 3.607,0 0,-3.707 -3.607,0 0,-5.859 c 0,-1.952 0.496,-2.845 1.985,-2.845 0.696,0 1.027,0.032 1.49,0.132 l 0.033,-3.806 c -0.629,-0.233 -1.854,-0.431 -3.243,-0.431 -1.622,0 -2.979,0.563 -3.807,1.391 -0.927,0.959 -1.39,2.514 -1.39,4.799 l 0,6.619 -2.151,0 0,3.707 2.151,0 0,3.012 L 0,0 z"
         style="fill:#000000;fill-opacity:1;fill-rule:nonzero;stroke:none"
         id="path3193"
         inkscape:connector-curvature="0" /></g><g
       id="g3195"
       transform="translate(414.0898,255.5547)"
       style="fill:#000000"><path
         d="M 0,0 C 0,1.225 -0.529,3.276 -2.847,3.276 -4.965,3.276 -5.825,1.324 -5.957,0 L 0,0 z m -5.924,-3.441 c 0.132,-2.086 2.217,-3.079 4.567,-3.079 1.721,0 3.111,0.232 4.468,0.695 L 3.772,-9.233 C 2.118,-9.929 0.1,-10.26 -2.085,-10.26 c -5.494,0 -8.639,3.178 -8.639,8.241 0,4.104 2.549,8.638 8.175,8.638 5.23,0 7.216,-4.07 7.216,-8.075 0,-0.86 -0.1,-1.622 -0.166,-1.985 l -10.425,0 z"
         style="fill:#000000;fill-opacity:1;fill-rule:nonzero;stroke:none"
         id="path3197"
         inkscape:connector-curvature="0" /></g><g
       id="g3199"
       transform="translate(420.877,248.3066)"
       style="fill:#000000"><path
         d="M 0,0 C 0,1.82 1.224,3.078 2.979,3.078 4.699,3.078 5.891,1.854 5.924,0 5.924,-1.754 4.732,-3.045 2.912,-3.045 1.224,-3.045 0,-1.754 0,0"
         style="fill:#000000;fill-opacity:1;fill-rule:nonzero;stroke:none"
         id="path3201"
         inkscape:connector-curvature="0" /></g><g
       id="g3203"
       transform="translate(435.2734,245.626)"
       style="fill:#000000"><path
         d="m 0,0 -7.148,22.307 5.527,0 2.714,-9.433 C 1.854,10.193 2.549,7.679 3.078,4.898 l 0.1,0 c 0.562,2.681 1.258,5.329 2.018,7.877 l 2.847,9.532 5.361,0 L 5.892,0 0,0 z"
         style="fill:#000000;fill-opacity:1;fill-rule:nonzero;stroke:none"
         id="path3205"
         inkscape:connector-curvature="0" /></g><g
       id="g3207"
       transform="translate(448.249,248.3066)"
       style="fill:#000000"><path
         d="M 0,0 C 0,1.82 1.224,3.078 2.979,3.078 4.699,3.078 5.891,1.854 5.924,0 5.924,-1.754 4.732,-3.045 2.912,-3.045 1.224,-3.045 0,-1.754 0,0"
         style="fill:#000000;fill-opacity:1;fill-rule:nonzero;stroke:none"
         id="path3209"
         inkscape:connector-curvature="0" /></g></g></svg>